# xmcd
#
# Track frame offsets:
#	150
#	13029
#	23187
#	37527
#	49651
#	62009
#	75709
#	87009
#	97420
#	106888
#	123648
#	133470
#	145124
#	155869
#	166800
#	178189
#	188078
#	199150
#	208985
#	222684
#	233878
#	245930
#	260952
#	271007
#	282192
#
# Disc length: 3977 seconds
#
# Revision: 1
# Processed by: cddbd v1.5.2PL0 Copyright (c) Steve Scherf et al.
# Submitted via: audiograbber 1.83.01
#
DISCID=800f8719
DTITLE=Ford Tennessee Ernie - The very Best of CD2
DYEAR=19
DGENRE=CO/Western
TTITLE0=The Ballad of Davy Crockett
TTITLE1=Smokey Mountain Boogie
TTITLE2=The Cry of the wild Goose
TTITLE3=She's my Baby
TTITLE4=Dark as a Dungeon
TTITLE5=Mule Train
TTITLE6=Call me Darling
TTITLE7=Milk 'em in the Morning Blues
TTITLE8=Anticipation Blues
TTITLE9=I gotta have my Baby back
TTITLE10=Kiss me Big
TTITLE11=I Forgot more than you'll ever Know
TTITLE12=Rock Roll Boogie
TTITLE13=I ain't a gonna let it Happen no More
TTITLE14=The Lord's Lariat
TTITLE15=The Watermelon Song
TTITLE16=Have you seen her
TTITLE17=You don't have to be a Baby to Cry
TTITLE18=Bright Lights and Blonde Haired Women
TTITLE19=I can't Help it (If i'm Still in Love with you)
TTITLE20=I Really don't want to Know
TTITLE21=Philadelphia Lawyer
TTITLE22=Trouble in Mind
TTITLE23=Molly Darling
TTITLE24=Jealous Heart
EXTD=
EXTT0=
EXTT1=
EXTT2=
EXTT3=
EXTT4=
EXTT5=
EXTT6=
EXTT7=
EXTT8=
EXTT9=
EXTT10=
EXTT11=
EXTT12=
EXTT13=
EXTT14=
EXTT15=
EXTT16=
EXTT17=
EXTT18=
EXTT19=
EXTT20=
EXTT21=
EXTT22=
EXTT23=
EXTT24=
PLAYORDER=
